<?xml version="1.0" encoding="UTF-8" standalone="no"?>
<svg
   xmlns:dc="http://purl.org/dc/elements/1.1/"
   xmlns:cc="http://creativecommons.org/ns#"
   xmlns:rdf="http://www.w3.org/1999/02/22-rdf-syntax-ns#"
   xmlns:svg="http://www.w3.org/2000/svg"
   xmlns="http://www.w3.org/2000/svg"
   viewBox="0 0 122.52 122.52"
   height="122.52"
   width="122.52"
   xml:space="preserve"
   id="svg2"
   version="1.1"><defs
     id="defs6" /><path
     id="path14-7"
     style="fill:#ffffff;fill-opacity:1;fill-rule:nonzero;stroke:none;stroke-width:0.13333333"
     d="M 120.20573,55.806401 66.713598,2.3164022 c -3.0792,-3.08133321 -8.075599,-3.08133321 -11.158933,0 L 2.3098947,55.558535 c -3.08072704,3.083866 -3.08072704,8.080266 0,11.161466 L 55.804665,120.21011 c 3.079734,3.08073 8.074533,3.08073 11.158933,0 L 120.20573,66.967868 c 3.08174,-3.081734 3.08174,-8.080667 0,-11.161467" /><path
     id="path14"
     style="fill:#f03c2e;fill-opacity:1;fill-rule:nonzero;stroke:none;stroke-width:0.13333333"
     d="M 120.20573,55.806402 66.713598,2.316403 c -3.0792,-3.08133325 -8.075599,-3.08133325 -11.158933,0 l -11.106799,11.1088 14.089599,14.090133 c 3.275067,-1.105734 7.030267,-0.3636 9.6396,2.246266 2.625067,2.626134 3.3604,6.4136 2.226533,9.7 l 13.5808,13.5792 c 3.2864,-1.1328 7.075466,-0.400534 9.700533,2.228133 3.666667,3.6656 3.666667,9.607866 0,13.276533 -3.669333,3.6688 -9.6104,3.6688 -13.281333,0 -2.757733,-2.7604 -3.44,-6.812933 -2.0416,-10.210933 l -12.666666,-12.6656 v 33.329199 c 0.8932,0.442667 1.736933,1.032267 2.481733,1.774934 3.666667,3.666266 3.666667,9.607866 0,13.279733 -3.666667,3.665066 -9.612,3.665066 -13.276,0 -3.666666,-3.671867 -3.666666,-9.613467 0,-13.279733 0.906267,-0.9052 1.955734,-1.59 3.075467,-2.0484 V 45.087202 c -1.119733,-0.4584 -2.166667,-1.137467 -3.075467,-2.048933 -2.777066,-2.776134 -3.445333,-6.852667 -2.0208,-10.2636 L 38.989599,18.882003 2.3098933,55.558535 c -3.08072661,3.083867 -3.08072661,8.080266 0,11.161466 L 55.804665,120.21011 c 3.079734,3.08072 8.074533,3.08072 11.158933,0 L 120.20573,66.967868 c 3.08173,-3.081733 3.08173,-8.080666 0,-11.161466" /><metadata
     id="metadata4555"><rdf:RDF><cc:Work
         rdf:about=""><dc:title></dc:title></cc:Work></rdf:RDF></metadata></svg>